<?xml version="1.0" encoding="utf-8"?>
<!-- Generator: Adobe Illustrator 23.0.3, SVG Export Plug-In . SVG Version: 6.00 Build 0)  -->
<svg version="1.1" id="Layer_1" xmlns="http://www.w3.org/2000/svg" xmlns:xlink="http://www.w3.org/1999/xlink" x="0px" y="0px"
	 viewBox="0 0 306 743" style="enable-background:new 0 0 306 743;" xml:space="preserve">
<style type="text/css">
	.st0{fill:#1F84FF;}
	.st1{fill:#FFE00A;}
	.st2{fill:#FFFFFF;}
	.st3{fill:#FDFFE8;stroke:#000000;stroke-miterlimit:10;}
	.st4{fill:#F3FAFF;stroke:#000000;stroke-miterlimit:10;}
	.st5{fill:none;stroke:#000000;stroke-miterlimit:10;}
	.st6{fill:#FFFFFF;stroke:#000000;stroke-miterlimit:10;}
	.st7{fill:#8A98FF;stroke:#000000;stroke-miterlimit:10;}
	.st8{fill:none;stroke:#383CED;stroke-miterlimit:10;}
	.st9{fill:#E80013;}
	.st10{font-family:'MicrosoftSansSerif';}
	.st11{font-size:5.4631px;}
	.st12{fill:#FCFF74;stroke:#000000;stroke-miterlimit:10;}
	.st13{fill:#258506;stroke:#000000;stroke-width:1.5;stroke-miterlimit:10;}
	.st14{fill:#FFFFFF;stroke:#000000;stroke-width:0.5;stroke-miterlimit:10;}
	.st15{font-family:'BrushScriptMT';}
	.st16{font-size:18.6993px;}
	.st17{fill:none;}
	.st18{font-size:23.3742px;}
	.st19{fill:#FFF5BE;stroke:#000000;stroke-miterlimit:10;}
	.st20{fill:#FFE49E;stroke:#000000;stroke-miterlimit:10;}
	.st21{fill:#FFC15F;stroke:#000000;stroke-miterlimit:10;}
	.st22{fill:#FF9E15;stroke:#000000;stroke-miterlimit:10;}
	.st23{fill:#FF8F00;stroke:#000000;stroke-miterlimit:10;}
	.st24{fill:#001DA1;stroke:#000000;stroke-miterlimit:10;}
	.st25{fill:#001FCF;stroke:#000000;stroke-miterlimit:10;}
	.st26{fill:#2E4EFF;stroke:#000000;stroke-miterlimit:10;}
	.st27{fill:#5C7EFF;stroke:#000000;stroke-miterlimit:10;}
	.st28{fill:#FF843F;stroke:#000000;stroke-miterlimit:10;}
	.st29{fill:#FFFC7F;stroke:#000000;stroke-miterlimit:10;}
	.st30{fill:#F30D00;stroke:#000000;stroke-miterlimit:10;}
	.st31{fill:#F34B00;stroke:#000000;stroke-miterlimit:10;}
	.st32{fill:#FF8E00;stroke:#000000;stroke-miterlimit:10;}
	.st33{fill:#FFB50A;stroke:#000000;stroke-miterlimit:10;}
	.st34{fill:#FFDD00;stroke:#000000;stroke-miterlimit:10;}
	.st35{fill:#FAFF0A;stroke:#000000;stroke-miterlimit:10;}
	.st36{fill:#F0FF74;stroke:#000000;stroke-miterlimit:10;}
</style>
<rect x="-4" y="-0.31" class="st0" width="306.47" height="743.31"/>
<circle class="st1" cx="74.16" cy="77.54" r="67.57"/>
<g>
	<path class="st2" d="M39.85,230.81c0,0.37-0.01,0.73-0.01,1.1c-0.35,13.91-7.27,26.19-17.78,33.85c-7.13,5.2-15.91,8.27-25.42,8.27
		c-0.22,0-0.43,0-0.64-0.01V187.6c0.22-0.01,0.43-0.01,0.64-0.01c7.06,0,13.73,1.69,19.61,4.7c2.03,1.04,3.98,2.23,5.81,3.57
		c9.07,6.61,15.48,16.67,17.27,28.26C39.68,226.3,39.85,228.53,39.85,230.81z"/>
	<circle class="st2" cx="47.48" cy="230.8" r="43.21"/>
	<circle class="st2" cx="90.69" cy="230.8" r="43.21"/>
	<circle class="st2" cx="59.45" cy="193.39" r="43.21"/>
	<path class="st2" d="M59.45,187.6c0,0.56-0.01,1.12-0.04,1.67c-0.22,5.89-1.61,11.47-3.96,16.52c-0.01,0.01-0.01,0.02-0.02,0.03
		c-1.11,2.37-2.41,4.63-3.92,6.74c0,0.01-0.01,0.01-0.01,0.01c-3.25,4.59-7.4,8.52-12.17,11.55c-2.03,1.29-4.19,2.41-6.44,3.35
		c-5.12,2.15-10.75,3.33-16.65,3.33c-4.14,0-8.14-0.58-11.94-1.67c-2.91-0.83-5.69-1.96-8.31-3.35v-76.37
		c6.04-3.21,12.93-5.03,20.24-5.03c10.01,0,19.23,3.41,26.55,9.12C52.94,161.41,59.45,173.74,59.45,187.6z"/>
</g>
<g>
	<path class="st2" d="M302.47,150.74v53.68c-7.91,9.97-20.14,16.37-33.86,16.37c-9.49,0-18.28-3.06-25.41-8.27
		c-10.51-7.65-17.43-19.93-17.78-33.85c-0.01-0.37-0.01-0.73-0.01-1.1c0-2.27,0.18-4.5,0.52-6.68c1.79-11.59,8.2-21.65,17.28-28.26
		c1.83-1.34,3.77-2.53,5.8-3.57c5.89-3.01,12.55-4.7,19.61-4.7c8.49,0,16.41,2.45,23.09,6.68
		C295.82,143.65,299.46,146.93,302.47,150.74z"/>
	<circle class="st2" cx="217.78" cy="177.58" r="43.21"/>
	<circle class="st2" cx="174.57" cy="177.58" r="43.21"/>
	<circle class="st2" cx="205.8" cy="140.16" r="43.21"/>
	<circle class="st2" cx="249.01" cy="134.37" r="43.21"/>
</g>
<g id="Crab_Shack_1_">
	<rect x="27.06" y="533.37" class="st3" width="244.59" height="106.48"/>
	<rect x="165.23" y="549.54" class="st4" width="44.2" height="90.3"/>
	<rect x="63.23" y="552.44" class="st5" width="27.89" height="48.02"/>
	<path class="st6" d="M61.39,550.06v52.53h96.12v-52.53H61.39z M91.13,600.46H63.23v-48.02h27.89V600.46z M93.07,600.46v-48.02
		h36.08v48.02H93.07z M155.64,600.46h-24.52v-48.02h24.52V600.46z"/>
	<rect x="93.07" y="552.44" class="st5" width="36.08" height="48.02"/>
	<rect x="131.11" y="552.44" class="st5" width="24.52" height="48.02"/>
	<rect x="63.23" y="552.44" class="st7" width="27.89" height="48.02"/>
	<rect x="93.07" y="552.44" class="st7" width="36.08" height="48.02"/>
	<rect x="131.11" y="552.44" class="st7" width="24.52" height="48.02"/>
	<path class="st8" d="M115.48,560.24h-11.46c-1.46,0-2.65-1.19-2.65-2.65l0,0c0-1.46,1.19-2.65,2.65-2.65h11.46
		c1.46,0,2.65,1.19,2.65,2.65l0,0C118.13,559.06,116.94,560.24,115.48,560.24z"/>
	<text transform="matrix(1.0474 0 0 1 101.7397 559.5752)" class="st9 st10 st11">OPEN</text>
	<polyline class="st5" points="289.04,533.37 289.04,533.19 289.04,532.95 280.63,528.09 271.76,522.97 263.09,517.96 
		254.28,512.88 245.62,507.87 236.88,502.83 228.21,497.82 219.41,492.74 210.74,487.73 201.87,482.61 193.2,477.61 184.46,472.56 
		175.79,467.55 166.99,462.47 158.32,457.46 149.45,452.34 149.39,452.31 140.78,457.28 132.04,462.32 123.37,467.33 114.5,472.45 
		105.83,477.45 97.41,482.32 88.74,487.32 79.55,492.63 70.87,497.63 62.04,502.73 53.37,507.74 44.78,512.7 36.11,517.7 
		27.06,522.92 18.39,527.93 9.72,532.94 9.72,533.37 	"/>
	<line class="st5" x1="27.06" y1="533.37" x2="9.72" y2="533.37"/>
	<line class="st5" x1="271.65" y1="533.37" x2="289.05" y2="533.37"/>
	<polyline class="st12" points="27.06,522.92 27.06,533.37 18.39,533.37 18.39,527.93 	"/>
	<polygon class="st12" points="44.78,512.7 44.78,533.37 36.11,533.37 36.11,517.7 	"/>
	<polygon class="st12" points="62.04,502.73 62.04,533.37 53.37,533.37 53.37,507.74 	"/>
	<polygon class="st12" points="79.55,492.63 79.55,533.37 70.87,533.37 70.87,497.63 	"/>
	<polygon class="st12" points="97.41,482.32 97.41,533.37 88.74,533.37 88.74,487.32 	"/>
	<polygon class="st12" points="114.5,472.45 114.5,533.19 105.83,533.19 105.83,477.45 	"/>
	<polygon class="st12" points="132.04,462.32 132.04,533.19 123.37,533.19 123.37,467.33 	"/>
	<polygon class="st12" points="149.45,452.34 149.45,533.19 140.78,533.19 140.78,457.28 149.39,452.31 	"/>
	<polyline class="st12" points="166.99,462.47 166.99,533.19 158.32,533.19 158.32,457.46 	"/>
	<polygon class="st12" points="184.46,472.56 184.46,533.19 175.79,533.19 175.79,467.55 	"/>
	<polygon class="st12" points="201.87,482.61 201.87,533.19 193.2,533.19 193.2,477.61 	"/>
	<polygon class="st12" points="219.41,492.74 219.41,533.19 210.74,533.19 210.74,487.73 	"/>
	<polygon class="st12" points="236.88,502.83 236.88,533.19 228.21,533.19 228.21,497.82 	"/>
	<polygon class="st12" points="254.28,512.88 254.28,533.19 245.62,533.19 245.62,507.87 	"/>
	<polygon class="st12" points="271.76,522.97 271.76,533.19 263.09,533.19 263.09,517.96 	"/>
	<polygon class="st12" points="289.04,532.95 289.04,533.19 280.63,533.19 280.63,528.09 	"/>
	<rect x="44.78" y="487.73" class="st13" width="209.51" height="40.41"/>
	<text transform="matrix(1 0 0 1 65.5068 506.8721)" class="st14 st15 st16">The</text>
	<rect x="88.31" y="502.8" class="st17" width="150.46" height="25.41"/>
	<text id="SHACK_1_" transform="matrix(1 0 0 1 88.312 516.2705)" class="st14 st15 st18">CRAB SHACK</text>
	<line class="st5" x1="105.83" y1="552.44" x2="105.83" y2="554.58"/>
	<line class="st5" x1="114.5" y1="552.44" x2="114.5" y2="554.58"/>
	<circle class="st6" cx="203.71" cy="598" r="1.85"/>
	<rect x="169.3" y="602.6" class="st6" width="36.06" height="31.14"/>
	<line class="st5" x1="170.18" y1="589.78" x2="204.73" y2="589.78"/>
	<line class="st5" x1="204.55" y1="585.57" x2="193.01" y2="585.57"/>
	<line class="st5" x1="182.81" y1="585.57" x2="170.36" y2="585.57"/>
	<polyline class="st5" points="182.81,581.01 170.19,581.01 170.01,581.01 	"/>
	<line class="st5" x1="204.73" y1="581.01" x2="193.01" y2="581.01"/>
	<line class="st5" x1="204.73" y1="576.8" x2="193.01" y2="576.8"/>
	<line class="st5" x1="182.81" y1="576.8" x2="170.19" y2="576.8"/>
	<line class="st5" x1="204.73" y1="572.41" x2="193.01" y2="572.41"/>
	<line class="st5" x1="182.81" y1="572.41" x2="170.19" y2="572.41"/>
	<polyline class="st5" points="204.73,569.26 193.01,569.26 192.36,569.26 	"/>
	<polyline class="st5" points="183.45,569.26 182.81,569.26 170.19,569.26 	"/>
	<line class="st5" x1="183.49" y1="564.22" x2="170.36" y2="564.22"/>
	<line class="st5" x1="204.55" y1="564.22" x2="192.32" y2="564.22"/>
	<line class="st5" x1="170.05" y1="559.61" x2="204.58" y2="559.72"/>
	<rect x="170.19" y="555.62" class="st19" width="34.6" height="3.96"/>
	<rect x="170.36" y="559.72" class="st20" width="34.2" height="4.49"/>
	<rect x="170.36" y="564.22" class="st21" width="34.2" height="4.96"/>
	<rect x="170.36" y="569.26" class="st22" width="34.2" height="3.15"/>
	<rect x="170.19" y="572.41" class="st23" width="34.37" height="4.03"/>
	<rect x="170.36" y="576.32" class="st24" width="34.2" height="4.25"/>
	<rect x="170.36" y="580.63" class="st25" width="34.2" height="4.59"/>
	<rect x="170.36" y="585.22" class="st26" width="34.2" height="4.47"/>
	<rect x="170.19" y="589.78" class="st27" width="34.37" height="3.27"/>
	<g id="Center_1_">
		<path class="st5" d="M169.5,554.94v38.93h36.07v-38.93H169.5z M204.79,593.05h-34.6v-37.44h34.6V593.05z"/>
	</g>
	<rect x="182.14" y="566.15" class="st3" width="9.15" height="23.55"/>
	<circle class="st28" cx="186.72" cy="565.95" r="4.58"/>
	<line class="st5" x1="186.6" y1="570.53" x2="186.6" y2="589.69"/>
	<line class="st5" x1="189.12" y1="569.87" x2="189.12" y2="589.51"/>
	<line class="st5" x1="184.07" y1="569.69" x2="184.07" y2="589.69"/>
	<circle class="st29" cx="186.72" cy="565.95" r="2.1"/>
	<rect x="170.03" y="603.36" class="st3" width="34.61" height="29.61"/>
	<rect x="170.03" y="603.36" class="st30" width="34.61" height="4.19"/>
	<rect x="170.01" y="607.56" class="st31" width="34.61" height="4.19"/>
	<rect x="170.01" y="611.75" class="st32" width="34.61" height="4.19"/>
	<rect x="170.07" y="615.95" class="st33" width="34.61" height="4.19"/>
	<rect x="170.07" y="620.14" class="st34" width="34.61" height="4.19"/>
	<rect x="170.01" y="624.34" class="st35" width="34.61" height="4.19"/>
	<rect x="170.01" y="628.78" class="st36" width="34.61" height="4.19"/>
</g>
</svg>
